<svg class="rich-terminal" viewBox="0 0 1726 1026.0" xmlns="http://www.w3.org/2000/svg">
    <!-- Generated with Rich https://www.textualize.io -->
    <style>

    @font-face {
        font-family: "Fira Code";
        src: local("FiraCode-Regular"),
                url("https://cdnjs.cloudflare.com/ajax/libs/firacode/6.2.0/woff2/FiraCode-Regular.woff2") format("woff2"),
                url("https://cdnjs.cloudflare.com/ajax/libs/firacode/6.2.0/woff/FiraCode-Regular.woff") format("woff");
        font-style: normal;
        font-weight: 400;
    }
    @font-face {
        font-family: "Fira Code";
        src: local("FiraCode-Bold"),
                url("https://cdnjs.cloudflare.com/ajax/libs/firacode/6.2.0/woff2/FiraCode-Bold.woff2") format("woff2"),
                url("https://cdnjs.cloudflare.com/ajax/libs/firacode/6.2.0/woff/FiraCode-Bold.woff") format("woff");
        font-style: bold;
        font-weight: 700;
    }

    .terminal-158696565-matrix {
        font-family: Fira Code, monospace;
        font-size: 20px;
        line-height: 24.4px;
        font-variant-east-asian: full-width;
    }

    .terminal-158696565-title {
        font-size: 18px;
        font-weight: bold;
        font-family: arial;
    }

    .terminal-158696565-r1 { fill: #c5c8c6 }
.terminal-158696565-r2 { fill: #fea62b }
.terminal-158696565-r3 { fill: #e0e0e0;font-weight: bold }
.terminal-158696565-r4 { fill: #e0e0e0 }
.terminal-158696565-r5 { fill: #1e1e1e }
.terminal-158696565-r6 { fill: #0178d4 }
.terminal-158696565-r7 { fill: #797979 }
.terminal-158696565-r8 { fill: #191919 }
.terminal-158696565-r9 { fill: #a5a5a5 }
    </style>

    <defs>
    <clipPath id="terminal-158696565-clip-terminal">
      <rect x="0" y="0" width="1707.0" height="975.0" />
    </clipPath>
    <clipPath id="terminal-158696565-line-0">
    <rect x="0" y="1.5" width="1708" height="24.65"/>
            </clipPath>
<clipPath id="terminal-158696565-line-1">
    <rect x="0" y="25.9" width="1708" height="24.65"/>
            </clipPath>
<clipPath id="terminal-158696565-line-2">
    <rect x="0" y="50.3" width="1708" height="24.65"/>
            </clipPath>
<clipPath id="terminal-158696565-line-3">
    <rect x="0" y="74.7" width="1708" height="24.65"/>
            </clipPath>
<clipPath id="terminal-158696565-line-4">
    <rect x="0" y="99.1" width="1708" height="24.65"/>
            </clipPath>
<clipPath id="terminal-158696565-line-5">
    <rect x="0" y="123.5" width="1708" height="24.65"/>
            </clipPath>
<clipPath id="terminal-158696565-line-6">
    <rect x="0" y="147.9" width="1708" height="24.65"/>
            </clipPath>
<clipPath id="terminal-158696565-line-7">
    <rect x="0" y="172.3" width="1708" height="24.65"/>
            </clipPath>
<clipPath id="terminal-158696565-line-8">
    <rect x="0" y="196.7" width="1708" height="24.65"/>
            </clipPath>
<clipPath id="terminal-158696565-line-9">
    <rect x="0" y="221.1" width="1708" height="24.65"/>
            </clipPath>
<clipPath id="terminal-158696565-line-10">
    <rect x="0" y="245.5" width="1708" height="24.65"/>
            </clipPath>
<clipPath id="terminal-158696565-line-11">
    <rect x="0" y="269.9" width="1708" height="24.65"/>
            </clipPath>
<clipPath id="terminal-158696565-line-12">
    <rect x="0" y="294.3" width="1708" height="24.65"/>
            </clipPath>
<clipPath id="terminal-158696565-line-13">
    <rect x="0" y="318.7" width="1708" height="24.65"/>
            </clipPath>
<clipPath id="terminal-158696565-line-14">
    <rect x="0" y="343.1" width="1708" height="24.65"/>
            </clipPath>
<clipPath id="terminal-158696565-line-15">
    <rect x="0" y="367.5" width="1708" height="24.65"/>
            </clipPath>
<clipPath id="terminal-158696565-line-16">
    <rect x="0" y="391.9" width="1708" height="24.65"/>
            </clipPath>
<clipPath id="terminal-158696565-line-17">
    <rect x="0" y="416.3" width="1708" height="24.65"/>
            </clipPath>
<clipPath id="terminal-158696565-line-18">
    <rect x="0" y="440.7" width="1708" height="24.65"/>
            </clipPath>
<clipPath id="terminal-158696565-line-19">
    <rect x="0" y="465.1" width="1708" height="24.65"/>
            </clipPath>
<clipPath id="terminal-158696565-line-20">
    <rect x="0" y="489.5" width="1708" height="24.65"/>
            </clipPath>
<clipPath id="terminal-158696565-line-21">
    <rect x="0" y="513.9" width="1708" height="24.65"/>
            </clipPath>
<clipPath id="terminal-158696565-line-22">
    <rect x="0" y="538.3" width="1708" height="24.65"/>
            </clipPath>
<clipPath id="terminal-158696565-line-23">
    <rect x="0" y="562.7" width="1708" height="24.65"/>
            </clipPath>
<clipPath id="terminal-158696565-line-24">
    <rect x="0" y="587.1" width="1708" height="24.65"/>
            </clipPath>
<clipPath id="terminal-158696565-line-25">
    <rect x="0" y="611.5" width="1708" height="24.65"/>
            </clipPath>
<clipPath id="terminal-158696565-line-26">
    <rect x="0" y="635.9" width="1708" height="24.65"/>
            </clipPath>
<clipPath id="terminal-158696565-line-27">
    <rect x="0" y="660.3" width="1708" height="24.65"/>
            </clipPath>
<clipPath id="terminal-158696565-line-28">
    <rect x="0" y="684.7" width="1708" height="24.65"/>
            </clipPath>
<clipPath id="terminal-158696565-line-29">
    <rect x="0" y="709.1" width="1708" height="24.65"/>
            </clipPath>
<clipPath id="terminal-158696565-line-30">
    <rect x="0" y="733.5" width="1708" height="24.65"/>
            </clipPath>
<clipPath id="terminal-158696565-line-31">
    <rect x="0" y="757.9" width="1708" height="24.65"/>
            </clipPath>
<clipPath id="terminal-158696565-line-32">
    <rect x="0" y="782.3" width="1708" height="24.65"/>
            </clipPath>
<clipPath id="terminal-158696565-line-33">
    <rect x="0" y="806.7" width="1708" height="24.65"/>
            </clipPath>
<clipPath id="terminal-158696565-line-34">
    <rect x="0" y="831.1" width="1708" height="24.65"/>
            </clipPath>
<clipPath id="terminal-158696565-line-35">
    <rect x="0" y="855.5" width="1708" height="24.65"/>
            </clipPath>
<clipPath id="terminal-158696565-line-36">
    <rect x="0" y="879.9" width="1708" height="24.65"/>
            </clipPath>
<clipPath id="terminal-158696565-line-37">
    <rect x="0" y="904.3" width="1708" height="24.65"/>
            </clipPath>
<clipPath id="terminal-158696565-line-38">
    <rect x="0" y="928.7" width="1708" height="24.65"/>
            </clipPath>
    </defs>

    <rect fill="#292929" stroke="rgba(255,255,255,0.35)" stroke-width="1" x="1" y="1" width="1724" height="1024" rx="8"/><text class="terminal-158696565-title" fill="#c5c8c6" text-anchor="middle" x="862" y="27">Open&#160;Researcher</text>
            <g transform="translate(26,22)">
            <circle cx="0" cy="0" r="7" fill="#ff5f57"/>
            <circle cx="22" cy="0" r="7" fill="#febc2e"/>
            <circle cx="44" cy="0" r="7" fill="#28c840"/>
            </g>
        
    <g transform="translate(9, 41)" clip-path="url(#terminal-158696565-clip-terminal)">
    <rect fill="#121212" x="0" y="1.5" width="1708" height="24.65" shape-rendering="crispEdges"/><rect fill="#121212" x="0" y="25.9" width="1708" height="24.65" shape-rendering="crispEdges"/><rect fill="#121212" x="0" y="50.3" width="1708" height="24.65" shape-rendering="crispEdges"/><rect fill="#121212" x="0" y="74.7" width="1708" height="24.65" shape-rendering="crispEdges"/><rect fill="#121212" x="0" y="99.1" width="1708" height="24.65" shape-rendering="crispEdges"/><rect fill="#121212" x="0" y="123.5" width="1708" height="24.65" shape-rendering="crispEdges"/><rect fill="#121212" x="0" y="147.9" width="1708" height="24.65" shape-rendering="crispEdges"/><rect fill="#121212" x="0" y="172.3" width="1708" height="24.65" shape-rendering="crispEdges"/><rect fill="#121212" x="0" y="196.7" width="1708" height="24.65" shape-rendering="crispEdges"/><rect fill="#121212" x="0" y="221.1" width="1708" height="24.65" shape-rendering="crispEdges"/><rect fill="#121212" x="0" y="245.5" width="1708" height="24.65" shape-rendering="crispEdges"/><rect fill="#121212" x="0" y="269.9" width="1708" height="24.65" shape-rendering="crispEdges"/><rect fill="#121212" x="0" y="294.3" width="427" height="24.65" shape-rendering="crispEdges"/><rect fill="#1e1e1e" x="427" y="294.3" width="12.2" height="24.65" shape-rendering="crispEdges"/><rect fill="#1e1e1e" x="439.2" y="294.3" width="829.6" height="24.65" shape-rendering="crispEdges"/><rect fill="#1e1e1e" x="1268.8" y="294.3" width="12.2" height="24.65" shape-rendering="crispEdges"/><rect fill="#121212" x="1281" y="294.3" width="427" height="24.65" shape-rendering="crispEdges"/><rect fill="#121212" x="0" y="318.7" width="427" height="24.65" shape-rendering="crispEdges"/><rect fill="#1e1e1e" x="427" y="318.7" width="12.2" height="24.65" shape-rendering="crispEdges"/><rect fill="#1e1e1e" x="439.2" y="318.7" width="829.6" height="24.65" shape-rendering="crispEdges"/><rect fill="#1e1e1e" x="1268.8" y="318.7" width="12.2" height="24.65" shape-rendering="crispEdges"/><rect fill="#121212" x="1281" y="318.7" width="427" height="24.65" shape-rendering="crispEdges"/><rect fill="#121212" x="0" y="343.1" width="427" height="24.65" shape-rendering="crispEdges"/><rect fill="#1e1e1e" x="427" y="343.1" width="12.2" height="24.65" shape-rendering="crispEdges"/><rect fill="#1e1e1e" x="439.2" y="343.1" width="24.4" height="24.65" shape-rendering="crispEdges"/><rect fill="#1e1e1e" x="463.6" y="343.1" width="280.6" height="24.65" shape-rendering="crispEdges"/><rect fill="#1e1e1e" x="744.2" y="343.1" width="207.4" height="24.65" shape-rendering="crispEdges"/><rect fill="#1e1e1e" x="951.6" y="343.1" width="292.8" height="24.65" shape-rendering="crispEdges"/><rect fill="#1e1e1e" x="1244.4" y="343.1" width="24.4" height="24.65" shape-rendering="crispEdges"/><rect fill="#1e1e1e" x="1268.8" y="343.1" width="12.2" height="24.65" shape-rendering="crispEdges"/><rect fill="#121212" x="1281" y="343.1" width="427" height="24.65" shape-rendering="crispEdges"/><rect fill="#121212" x="0" y="367.5" width="427" height="24.65" shape-rendering="crispEdges"/><rect fill="#1e1e1e" x="427" y="367.5" width="12.2" height="24.65" shape-rendering="crispEdges"/><rect fill="#1e1e1e" x="439.2" y="367.5" width="24.4" height="24.65" shape-rendering="crispEdges"/><rect fill="#1e1e1e" x="463.6" y="367.5" width="780.8" height="24.65" shape-rendering="crispEdges"/><rect fill="#1e1e1e" x="1244.4" y="367.5" width="24.4" height="24.65" shape-rendering="crispEdges"/><rect fill="#1e1e1e" x="1268.8" y="367.5" width="12.2" height="24.65" shape-rendering="crispEdges"/><rect fill="#121212" x="1281" y="367.5" width="427" height="24.65" shape-rendering="crispEdges"/><rect fill="#121212" x="0" y="391.9" width="427" height="24.65" shape-rendering="crispEdges"/><rect fill="#1e1e1e" x="427" y="391.9" width="12.2" height="24.65" shape-rendering="crispEdges"/><rect fill="#1e1e1e" x="439.2" y="391.9" width="24.4" height="24.65" shape-rendering="crispEdges"/><rect fill="#1e1e1e" x="463.6" y="391.9" width="146.4" height="24.65" shape-rendering="crispEdges"/><rect fill="#1e1e1e" x="610" y="391.9" width="634.4" height="24.65" shape-rendering="crispEdges"/><rect fill="#1e1e1e" x="1244.4" y="391.9" width="24.4" height="24.65" shape-rendering="crispEdges"/><rect fill="#1e1e1e" x="1268.8" y="391.9" width="12.2" height="24.65" shape-rendering="crispEdges"/><rect fill="#121212" x="1281" y="391.9" width="427" height="24.65" shape-rendering="crispEdges"/><rect fill="#121212" x="0" y="416.3" width="427" height="24.65" shape-rendering="crispEdges"/><rect fill="#1e1e1e" x="427" y="416.3" width="12.2" height="24.65" shape-rendering="crispEdges"/><rect fill="#1e1e1e" x="439.2" y="416.3" width="24.4" height="24.65" shape-rendering="crispEdges"/><rect fill="#0178d4" x="463.6" y="416.3" width="12.2" height="24.65" shape-rendering="crispEdges"/><rect fill="#272727" x="475.8" y="416.3" width="756.4" height="24.65" shape-rendering="crispEdges"/><rect fill="#1e1e1e" x="1232.2" y="416.3" width="12.2" height="24.65" shape-rendering="crispEdges"/><rect fill="#1e1e1e" x="1244.4" y="416.3" width="24.4" height="24.65" shape-rendering="crispEdges"/><rect fill="#1e1e1e" x="1268.8" y="416.3" width="12.2" height="24.65" shape-rendering="crispEdges"/><rect fill="#121212" x="1281" y="416.3" width="427" height="24.65" shape-rendering="crispEdges"/><rect fill="#121212" x="0" y="440.7" width="427" height="24.65" shape-rendering="crispEdges"/><rect fill="#1e1e1e" x="427" y="440.7" width="12.2" height="24.65" shape-rendering="crispEdges"/><rect fill="#1e1e1e" x="439.2" y="440.7" width="24.4" height="24.65" shape-rendering="crispEdges"/><rect fill="#0178d4" x="463.6" y="440.7" width="12.2" height="24.65" shape-rendering="crispEdges"/><rect fill="#272727" x="475.8" y="440.7" width="24.4" height="24.65" shape-rendering="crispEdges"/><rect fill="#272727" x="500.2" y="440.7" width="317.2" height="24.65" shape-rendering="crispEdges"/><rect fill="#272727" x="817.4" y="440.7" width="390.4" height="24.65" shape-rendering="crispEdges"/><rect fill="#272727" x="1207.8" y="440.7" width="24.4" height="24.65" shape-rendering="crispEdges"/><rect fill="#1e1e1e" x="1232.2" y="440.7" width="12.2" height="24.65" shape-rendering="crispEdges"/><rect fill="#1e1e1e" x="1244.4" y="440.7" width="24.4" height="24.65" shape-rendering="crispEdges"/><rect fill="#1e1e1e" x="1268.8" y="440.7" width="12.2" height="24.65" shape-rendering="crispEdges"/><rect fill="#121212" x="1281" y="440.7" width="427" height="24.65" shape-rendering="crispEdges"/><rect fill="#121212" x="0" y="465.1" width="427" height="24.65" shape-rendering="crispEdges"/><rect fill="#1e1e1e" x="427" y="465.1" width="12.2" height="24.65" shape-rendering="crispEdges"/><rect fill="#1e1e1e" x="439.2" y="465.1" width="24.4" height="24.65" shape-rendering="crispEdges"/><rect fill="#0178d4" x="463.6" y="465.1" width="12.2" height="24.65" shape-rendering="crispEdges"/><rect fill="#272727" x="475.8" y="465.1" width="756.4" height="24.65" shape-rendering="crispEdges"/><rect fill="#1e1e1e" x="1232.2" y="465.1" width="12.2" height="24.65" shape-rendering="crispEdges"/><rect fill="#1e1e1e" x="1244.4" y="465.1" width="24.4" height="24.65" shape-rendering="crispEdges"/><rect fill="#1e1e1e" x="1268.8" y="465.1" width="12.2" height="24.65" shape-rendering="crispEdges"/><rect fill="#121212" x="1281" y="465.1" width="427" height="24.65" shape-rendering="crispEdges"/><rect fill="#121212" x="0" y="489.5" width="427" height="24.65" shape-rendering="crispEdges"/><rect fill="#1e1e1e" x="427" y="489.5" width="12.2" height="24.65" shape-rendering="crispEdges"/><rect fill="#1e1e1e" x="439.2" y="489.5" width="24.4" height="24.65" shape-rendering="crispEdges"/><rect fill="#1e1e1e" x="463.6" y="489.5" width="183" height="24.65" shape-rendering="crispEdges"/><rect fill="#1e1e1e" x="646.6" y="489.5" width="597.8" height="24.65" shape-rendering="crispEdges"/><rect fill="#1e1e1e" x="1244.4" y="489.5" width="24.4" height="24.65" shape-rendering="crispEdges"/><rect fill="#1e1e1e" x="1268.8" y="489.5" width="12.2" height="24.65" shape-rendering="crispEdges"/><rect fill="#121212" x="1281" y="489.5" width="427" height="24.65" shape-rendering="crispEdges"/><rect fill="#121212" x="0" y="513.9" width="427" height="24.65" shape-rendering="crispEdges"/><rect fill="#1e1e1e" x="427" y="513.9" width="12.2" height="24.65" shape-rendering="crispEdges"/><rect fill="#1e1e1e" x="439.2" y="513.9" width="24.4" height="24.65" shape-rendering="crispEdges"/><rect fill="#191919" x="463.6" y="513.9" width="12.2" height="24.65" shape-rendering="crispEdges"/><rect fill="#1e1e1e" x="475.8" y="513.9" width="756.4" height="24.65" shape-rendering="crispEdges"/><rect fill="#1e1e1e" x="1232.2" y="513.9" width="12.2" height="24.65" shape-rendering="crispEdges"/><rect fill="#1e1e1e" x="1244.4" y="513.9" width="24.4" height="24.65" shape-rendering="crispEdges"/><rect fill="#1e1e1e" x="1268.8" y="513.9" width="12.2" height="24.65" shape-rendering="crispEdges"/><rect fill="#121212" x="1281" y="513.9" width="427" height="24.65" shape-rendering="crispEdges"/><rect fill="#121212" x="0" y="538.3" width="427" height="24.65" shape-rendering="crispEdges"/><rect fill="#1e1e1e" x="427" y="538.3" width="12.2" height="24.65" shape-rendering="crispEdges"/><rect fill="#1e1e1e" x="439.2" y="538.3" width="24.4" height="24.65" shape-rendering="crispEdges"/><rect fill="#191919" x="463.6" y="538.3" width="12.2" height="24.65" shape-rendering="crispEdges"/><rect fill="#1e1e1e" x="475.8" y="538.3" width="24.4" height="24.65" shape-rendering="crispEdges"/><rect fill="#1e1e1e" x="500.2" y="538.3" width="12.2" height="24.65" shape-rendering="crispEdges"/><rect fill="#1e1e1e" x="512.4" y="538.3" width="695.4" height="24.65" shape-rendering="crispEdges"/><rect fill="#1e1e1e" x="1207.8" y="538.3" width="24.4" height="24.65" shape-rendering="crispEdges"/><rect fill="#1e1e1e" x="1232.2" y="538.3" width="12.2" height="24.65" shape-rendering="crispEdges"/><rect fill="#1e1e1e" x="1244.4" y="538.3" width="24.4" height="24.65" shape-rendering="crispEdges"/><rect fill="#1e1e1e" x="1268.8" y="538.3" width="12.2" height="24.65" shape-rendering="crispEdges"/><rect fill="#121212" x="1281" y="538.3" width="427" height="24.65" shape-rendering="crispEdges"/><rect fill="#121212" x="0" y="562.7" width="427" height="24.65" shape-rendering="crispEdges"/><rect fill="#1e1e1e" x="427" y="562.7" width="12.2" height="24.65" shape-rendering="crispEdges"/><rect fill="#1e1e1e" x="439.2" y="562.7" width="24.4" height="24.65" shape-rendering="crispEdges"/><rect fill="#191919" x="463.6" y="562.7" width="12.2" height="24.65" shape-rendering="crispEdges"/><rect fill="#1e1e1e" x="475.8" y="562.7" width="756.4" height="24.65" shape-rendering="crispEdges"/><rect fill="#1e1e1e" x="1232.2" y="562.7" width="12.2" height="24.65" shape-rendering="crispEdges"/><rect fill="#1e1e1e" x="1244.4" y="562.7" width="24.4" height="24.65" shape-rendering="crispEdges"/><rect fill="#1e1e1e" x="1268.8" y="562.7" width="12.2" height="24.65" shape-rendering="crispEdges"/><rect fill="#121212" x="1281" y="562.7" width="427" height="24.65" shape-rendering="crispEdges"/><rect fill="#121212" x="0" y="587.1" width="427" height="24.65" shape-rendering="crispEdges"/><rect fill="#1e1e1e" x="427" y="587.1" width="12.2" height="24.65" shape-rendering="crispEdges"/><rect fill="#1e1e1e" x="439.2" y="587.1" width="24.4" height="24.65" shape-rendering="crispEdges"/><rect fill="#a5a5a5" x="463.6" y="587.1" width="85.4" height="24.65" shape-rendering="crispEdges"/><rect fill="#1e1e1e" x="549" y="587.1" width="244" height="24.65" shape-rendering="crispEdges"/><rect fill="#a5a5a5" x="793" y="587.1" width="61" height="24.65" shape-rendering="crispEdges"/><rect fill="#1e1e1e" x="854" y="587.1" width="85.4" height="24.65" shape-rendering="crispEdges"/><rect fill="#1e1e1e" x="939.4" y="587.1" width="305" height="24.65" shape-rendering="crispEdges"/><rect fill="#1e1e1e" x="1244.4" y="587.1" width="24.4" height="24.65" shape-rendering="crispEdges"/><rect fill="#1e1e1e" x="1268.8" y="587.1" width="12.2" height="24.65" shape-rendering="crispEdges"/><rect fill="#121212" x="1281" y="587.1" width="427" height="24.65" shape-rendering="crispEdges"/><rect fill="#121212" x="0" y="611.5" width="427" height="24.65" shape-rendering="crispEdges"/><rect fill="#1e1e1e" x="427" y="611.5" width="12.2" height="24.65" shape-rendering="crispEdges"/><rect fill="#1e1e1e" x="439.2" y="611.5" width="829.6" height="24.65" shape-rendering="crispEdges"/><rect fill="#1e1e1e" x="1268.8" y="611.5" width="12.2" height="24.65" shape-rendering="crispEdges"/><rect fill="#121212" x="1281" y="611.5" width="427" height="24.65" shape-rendering="crispEdges"/><rect fill="#121212" x="0" y="635.9" width="427" height="24.65" shape-rendering="crispEdges"/><rect fill="#1e1e1e" x="427" y="635.9" width="12.2" height="24.65" shape-rendering="crispEdges"/><rect fill="#1e1e1e" x="439.2" y="635.9" width="829.6" height="24.65" shape-rendering="crispEdges"/><rect fill="#1e1e1e" x="1268.8" y="635.9" width="12.2" height="24.65" shape-rendering="crispEdges"/><rect fill="#121212" x="1281" y="635.9" width="427" height="24.65" shape-rendering="crispEdges"/><rect fill="#121212" x="0" y="660.3" width="1708" height="24.65" shape-rendering="crispEdges"/><rect fill="#121212" x="0" y="684.7" width="1708" height="24.65" shape-rendering="crispEdges"/><rect fill="#121212" x="0" y="709.1" width="1708" height="24.65" shape-rendering="crispEdges"/><rect fill="#121212" x="0" y="733.5" width="1708" height="24.65" shape-rendering="crispEdges"/><rect fill="#121212" x="0" y="757.9" width="1708" height="24.65" shape-rendering="crispEdges"/><rect fill="#121212" x="0" y="782.3" width="1708" height="24.65" shape-rendering="crispEdges"/><rect fill="#121212" x="0" y="806.7" width="1708" height="24.65" shape-rendering="crispEdges"/><rect fill="#121212" x="0" y="831.1" width="1708" height="24.65" shape-rendering="crispEdges"/><rect fill="#121212" x="0" y="855.5" width="1708" height="24.65" shape-rendering="crispEdges"/><rect fill="#121212" x="0" y="879.9" width="1708" height="24.65" shape-rendering="crispEdges"/><rect fill="#121212" x="0" y="904.3" width="1708" height="24.65" shape-rendering="crispEdges"/><rect fill="#121212" x="0" y="928.7" width="1708" height="24.65" shape-rendering="crispEdges"/><rect fill="#121212" x="0" y="953.1" width="1708" height="24.65" shape-rendering="crispEdges"/>
    <g class="terminal-158696565-matrix">
    <text class="terminal-158696565-r1" x="1708" y="20" textLength="12.2" clip-path="url(#terminal-158696565-line-0)">
</text><text class="terminal-158696565-r1" x="1708" y="44.4" textLength="12.2" clip-path="url(#terminal-158696565-line-1)">
</text><text class="terminal-158696565-r1" x="1708" y="68.8" textLength="12.2" clip-path="url(#terminal-158696565-line-2)">
</text><text class="terminal-158696565-r1" x="1708" y="93.2" textLength="12.2" clip-path="url(#terminal-158696565-line-3)">
</text><text class="terminal-158696565-r1" x="1708" y="117.6" textLength="12.2" clip-path="url(#terminal-158696565-line-4)">
</text><text class="terminal-158696565-r1" x="1708" y="142" textLength="12.2" clip-path="url(#terminal-158696565-line-5)">
</text><text class="terminal-158696565-r1" x="1708" y="166.4" textLength="12.2" clip-path="url(#terminal-158696565-line-6)">
</text><text class="terminal-158696565-r1" x="1708" y="190.8" textLength="12.2" clip-path="url(#terminal-158696565-line-7)">
</text><text class="terminal-158696565-r1" x="1708" y="215.2" textLength="12.2" clip-path="url(#terminal-158696565-line-8)">
</text><text class="terminal-158696565-r1" x="1708" y="239.6" textLength="12.2" clip-path="url(#terminal-158696565-line-9)">
</text><text class="terminal-158696565-r1" x="1708" y="264" textLength="12.2" clip-path="url(#terminal-158696565-line-10)">
</text><text class="terminal-158696565-r1" x="1708" y="288.4" textLength="12.2" clip-path="url(#terminal-158696565-line-11)">
</text><text class="terminal-158696565-r2" x="427" y="312.8" textLength="12.2" clip-path="url(#terminal-158696565-line-12)">█</text><text class="terminal-158696565-r2" x="439.2" y="312.8" textLength="829.6" clip-path="url(#terminal-158696565-line-12)">▀▀▀▀▀▀▀▀▀▀▀▀▀▀▀▀▀▀▀▀▀▀▀▀▀▀▀▀▀▀▀▀▀▀▀▀▀▀▀▀▀▀▀▀▀▀▀▀▀▀▀▀▀▀▀▀▀▀▀▀▀▀▀▀▀▀▀▀</text><text class="terminal-158696565-r2" x="1268.8" y="312.8" textLength="12.2" clip-path="url(#terminal-158696565-line-12)">█</text><text class="terminal-158696565-r1" x="1708" y="312.8" textLength="12.2" clip-path="url(#terminal-158696565-line-12)">
</text><text class="terminal-158696565-r2" x="427" y="337.2" textLength="12.2" clip-path="url(#terminal-158696565-line-13)">█</text><text class="terminal-158696565-r2" x="1268.8" y="337.2" textLength="12.2" clip-path="url(#terminal-158696565-line-13)">█</text><text class="terminal-158696565-r1" x="1708" y="337.2" textLength="12.2" clip-path="url(#terminal-158696565-line-13)">
</text><text class="terminal-158696565-r2" x="427" y="361.6" textLength="12.2" clip-path="url(#terminal-158696565-line-14)">█</text><text class="terminal-158696565-r3" x="744.2" y="361.6" textLength="207.4" clip-path="url(#terminal-158696565-line-14)">Inject&#160;Experiment</text><text class="terminal-158696565-r2" x="1268.8" y="361.6" textLength="12.2" clip-path="url(#terminal-158696565-line-14)">█</text><text class="terminal-158696565-r1" x="1708" y="361.6" textLength="12.2" clip-path="url(#terminal-158696565-line-14)">
</text><text class="terminal-158696565-r2" x="427" y="386" textLength="12.2" clip-path="url(#terminal-158696565-line-15)">█</text><text class="terminal-158696565-r2" x="1268.8" y="386" textLength="12.2" clip-path="url(#terminal-158696565-line-15)">█</text><text class="terminal-158696565-r1" x="1708" y="386" textLength="12.2" clip-path="url(#terminal-158696565-line-15)">
</text><text class="terminal-158696565-r2" x="427" y="410.4" textLength="12.2" clip-path="url(#terminal-158696565-line-16)">█</text><text class="terminal-158696565-r4" x="463.6" y="410.4" textLength="146.4" clip-path="url(#terminal-158696565-line-16)">Description:</text><text class="terminal-158696565-r2" x="1268.8" y="410.4" textLength="12.2" clip-path="url(#terminal-158696565-line-16)">█</text><text class="terminal-158696565-r1" x="1708" y="410.4" textLength="12.2" clip-path="url(#terminal-158696565-line-16)">
</text><text class="terminal-158696565-r2" x="427" y="434.8" textLength="12.2" clip-path="url(#terminal-158696565-line-17)">█</text><text class="terminal-158696565-r5" x="463.6" y="434.8" textLength="12.2" clip-path="url(#terminal-158696565-line-17)">▊</text><text class="terminal-158696565-r6" x="475.8" y="434.8" textLength="756.4" clip-path="url(#terminal-158696565-line-17)">▔▔▔▔▔▔▔▔▔▔▔▔▔▔▔▔▔▔▔▔▔▔▔▔▔▔▔▔▔▔▔▔▔▔▔▔▔▔▔▔▔▔▔▔▔▔▔▔▔▔▔▔▔▔▔▔▔▔▔▔▔▔</text><text class="terminal-158696565-r6" x="1232.2" y="434.8" textLength="12.2" clip-path="url(#terminal-158696565-line-17)">▎</text><text class="terminal-158696565-r2" x="1268.8" y="434.8" textLength="12.2" clip-path="url(#terminal-158696565-line-17)">█</text><text class="terminal-158696565-r1" x="1708" y="434.8" textLength="12.2" clip-path="url(#terminal-158696565-line-17)">
</text><text class="terminal-158696565-r2" x="427" y="459.2" textLength="12.2" clip-path="url(#terminal-158696565-line-18)">█</text><text class="terminal-158696565-r5" x="463.6" y="459.2" textLength="12.2" clip-path="url(#terminal-158696565-line-18)">▊</text><text class="terminal-158696565-r7" x="500.2" y="459.2" textLength="317.2" clip-path="url(#terminal-158696565-line-18)">Describe&#160;the&#160;experiment...</text><text class="terminal-158696565-r6" x="1232.2" y="459.2" textLength="12.2" clip-path="url(#terminal-158696565-line-18)">▎</text><text class="terminal-158696565-r2" x="1268.8" y="459.2" textLength="12.2" clip-path="url(#terminal-158696565-line-18)">█</text><text class="terminal-158696565-r1" x="1708" y="459.2" textLength="12.2" clip-path="url(#terminal-158696565-line-18)">
</text><text class="terminal-158696565-r2" x="427" y="483.6" textLength="12.2" clip-path="url(#terminal-158696565-line-19)">█</text><text class="terminal-158696565-r5" x="463.6" y="483.6" textLength="12.2" clip-path="url(#terminal-158696565-line-19)">▊</text><text class="terminal-158696565-r6" x="475.8" y="483.6" textLength="756.4" clip-path="url(#terminal-158696565-line-19)">▁▁▁▁▁▁▁▁▁▁▁▁▁▁▁▁▁▁▁▁▁▁▁▁▁▁▁▁▁▁▁▁▁▁▁▁▁▁▁▁▁▁▁▁▁▁▁▁▁▁▁▁▁▁▁▁▁▁▁▁▁▁</text><text class="terminal-158696565-r6" x="1232.2" y="483.6" textLength="12.2" clip-path="url(#terminal-158696565-line-19)">▎</text><text class="terminal-158696565-r2" x="1268.8" y="483.6" textLength="12.2" clip-path="url(#terminal-158696565-line-19)">█</text><text class="terminal-158696565-r1" x="1708" y="483.6" textLength="12.2" clip-path="url(#terminal-158696565-line-19)">
</text><text class="terminal-158696565-r2" x="427" y="508" textLength="12.2" clip-path="url(#terminal-158696565-line-20)">█</text><text class="terminal-158696565-r4" x="463.6" y="508" textLength="183" clip-path="url(#terminal-158696565-line-20)">Priority&#160;(1-5):</text><text class="terminal-158696565-r2" x="1268.8" y="508" textLength="12.2" clip-path="url(#terminal-158696565-line-20)">█</text><text class="terminal-158696565-r1" x="1708" y="508" textLength="12.2" clip-path="url(#terminal-158696565-line-20)">
</text><text class="terminal-158696565-r2" x="427" y="532.4" textLength="12.2" clip-path="url(#terminal-158696565-line-21)">█</text><text class="terminal-158696565-r5" x="463.6" y="532.4" textLength="12.2" clip-path="url(#terminal-158696565-line-21)">▊</text><text class="terminal-158696565-r8" x="475.8" y="532.4" textLength="756.4" clip-path="url(#terminal-158696565-line-21)">▔▔▔▔▔▔▔▔▔▔▔▔▔▔▔▔▔▔▔▔▔▔▔▔▔▔▔▔▔▔▔▔▔▔▔▔▔▔▔▔▔▔▔▔▔▔▔▔▔▔▔▔▔▔▔▔▔▔▔▔▔▔</text><text class="terminal-158696565-r8" x="1232.2" y="532.4" textLength="12.2" clip-path="url(#terminal-158696565-line-21)">▎</text><text class="terminal-158696565-r2" x="1268.8" y="532.4" textLength="12.2" clip-path="url(#terminal-158696565-line-21)">█</text><text class="terminal-158696565-r1" x="1708" y="532.4" textLength="12.2" clip-path="url(#terminal-158696565-line-21)">
</text><text class="terminal-158696565-r2" x="427" y="556.8" textLength="12.2" clip-path="url(#terminal-158696565-line-22)">█</text><text class="terminal-158696565-r5" x="463.6" y="556.8" textLength="12.2" clip-path="url(#terminal-158696565-line-22)">▊</text><text class="terminal-158696565-r4" x="500.2" y="556.8" textLength="12.2" clip-path="url(#terminal-158696565-line-22)">3</text><text class="terminal-158696565-r8" x="1232.2" y="556.8" textLength="12.2" clip-path="url(#terminal-158696565-line-22)">▎</text><text class="terminal-158696565-r2" x="1268.8" y="556.8" textLength="12.2" clip-path="url(#terminal-158696565-line-22)">█</text><text class="terminal-158696565-r1" x="1708" y="556.8" textLength="12.2" clip-path="url(#terminal-158696565-line-22)">
</text><text class="terminal-158696565-r2" x="427" y="581.2" textLength="12.2" clip-path="url(#terminal-158696565-line-23)">█</text><text class="terminal-158696565-r5" x="463.6" y="581.2" textLength="12.2" clip-path="url(#terminal-158696565-line-23)">▊</text><text class="terminal-158696565-r8" x="475.8" y="581.2" textLength="756.4" clip-path="url(#terminal-158696565-line-23)">▁▁▁▁▁▁▁▁▁▁▁▁▁▁▁▁▁▁▁▁▁▁▁▁▁▁▁▁▁▁▁▁▁▁▁▁▁▁▁▁▁▁▁▁▁▁▁▁▁▁▁▁▁▁▁▁▁▁▁▁▁▁</text><text class="terminal-158696565-r8" x="1232.2" y="581.2" textLength="12.2" clip-path="url(#terminal-158696565-line-23)">▎</text><text class="terminal-158696565-r2" x="1268.8" y="581.2" textLength="12.2" clip-path="url(#terminal-158696565-line-23)">█</text><text class="terminal-158696565-r1" x="1708" y="581.2" textLength="12.2" clip-path="url(#terminal-158696565-line-23)">
</text><text class="terminal-158696565-r2" x="427" y="605.6" textLength="12.2" clip-path="url(#terminal-158696565-line-24)">█</text><text class="terminal-158696565-r5" x="463.6" y="605.6" textLength="85.4" clip-path="url(#terminal-158696565-line-24)">&#160;enter&#160;</text><text class="terminal-158696565-r9" x="549" y="605.6" textLength="244" clip-path="url(#terminal-158696565-line-24)">&#160;Add&#160;to&#160;frontier&#160;&#160;&#160;&#160;</text><text class="terminal-158696565-r5" x="793" y="605.6" textLength="61" clip-path="url(#terminal-158696565-line-24)">&#160;esc&#160;</text><text class="terminal-158696565-r9" x="854" y="605.6" textLength="85.4" clip-path="url(#terminal-158696565-line-24)">&#160;Cancel</text><text class="terminal-158696565-r2" x="1268.8" y="605.6" textLength="12.2" clip-path="url(#terminal-158696565-line-24)">█</text><text class="terminal-158696565-r1" x="1708" y="605.6" textLength="12.2" clip-path="url(#terminal-158696565-line-24)">
</text><text class="terminal-158696565-r2" x="427" y="630" textLength="12.2" clip-path="url(#terminal-158696565-line-25)">█</text><text class="terminal-158696565-r2" x="1268.8" y="630" textLength="12.2" clip-path="url(#terminal-158696565-line-25)">█</text><text class="terminal-158696565-r1" x="1708" y="630" textLength="12.2" clip-path="url(#terminal-158696565-line-25)">
</text><text class="terminal-158696565-r2" x="427" y="654.4" textLength="12.2" clip-path="url(#terminal-158696565-line-26)">█</text><text class="terminal-158696565-r2" x="439.2" y="654.4" textLength="829.6" clip-path="url(#terminal-158696565-line-26)">▄▄▄▄▄▄▄▄▄▄▄▄▄▄▄▄▄▄▄▄▄▄▄▄▄▄▄▄▄▄▄▄▄▄▄▄▄▄▄▄▄▄▄▄▄▄▄▄▄▄▄▄▄▄▄▄▄▄▄▄▄▄▄▄▄▄▄▄</text><text class="terminal-158696565-r2" x="1268.8" y="654.4" textLength="12.2" clip-path="url(#terminal-158696565-line-26)">█</text><text class="terminal-158696565-r1" x="1708" y="654.4" textLength="12.2" clip-path="url(#terminal-158696565-line-26)">
</text><text class="terminal-158696565-r1" x="1708" y="678.8" textLength="12.2" clip-path="url(#terminal-158696565-line-27)">
</text><text class="terminal-158696565-r1" x="1708" y="703.2" textLength="12.2" clip-path="url(#terminal-158696565-line-28)">
</text><text class="terminal-158696565-r1" x="1708" y="727.6" textLength="12.2" clip-path="url(#terminal-158696565-line-29)">
</text><text class="terminal-158696565-r1" x="1708" y="752" textLength="12.2" clip-path="url(#terminal-158696565-line-30)">
</text><text class="terminal-158696565-r1" x="1708" y="776.4" textLength="12.2" clip-path="url(#terminal-158696565-line-31)">
</text><text class="terminal-158696565-r1" x="1708" y="800.8" textLength="12.2" clip-path="url(#terminal-158696565-line-32)">
</text><text class="terminal-158696565-r1" x="1708" y="825.2" textLength="12.2" clip-path="url(#terminal-158696565-line-33)">
</text><text class="terminal-158696565-r1" x="1708" y="849.6" textLength="12.2" clip-path="url(#terminal-158696565-line-34)">
</text><text class="terminal-158696565-r1" x="1708" y="874" textLength="12.2" clip-path="url(#terminal-158696565-line-35)">
</text><text class="terminal-158696565-r1" x="1708" y="898.4" textLength="12.2" clip-path="url(#terminal-158696565-line-36)">
</text><text class="terminal-158696565-r1" x="1708" y="922.8" textLength="12.2" clip-path="url(#terminal-158696565-line-37)">
</text><text class="terminal-158696565-r1" x="1708" y="947.2" textLength="12.2" clip-path="url(#terminal-158696565-line-38)">
</text>
    </g>
    </g>
</svg>
